<svg width="20" height="20" viewBox="0 0 20 20" fill="none" xmlns="http://www.w3.org/2000/svg">
<path d="M10 19C11.1821 19.0015 12.3529 18.7693 13.445 18.3169C14.5371 17.8645 15.5291 17.2008 16.3639 16.3639C17.2008 15.5291 17.8645 14.5371 18.3169 13.445C18.7693 12.3529 19.0015 11.1821 19 10C19.0015 8.81789 18.7693 7.64714 18.3169 6.55502C17.8645 5.4629 17.2008 4.47093 16.3639 3.6361C15.5291 2.79918 14.5371 2.13545 13.445 1.68307C12.3529 1.23068 11.1821 0.998549 10 1.00001C8.81789 0.998549 7.64714 1.23068 6.55502 1.68307C5.4629 2.13545 4.47093 2.79918 3.6361 3.6361C2.79918 4.47093 2.13545 5.4629 1.68307 6.55502C1.23068 7.64714 0.998549 8.81789 1.00001 10C0.998549 11.1821 1.23068 12.3529 1.68307 13.445C2.13545 14.5371 2.79918 15.5291 3.6361 16.3639C4.47093 17.2008 5.4629 17.8645 6.55502 18.3169C7.64714 18.7693 8.81789 19.0015 10 19Z" stroke="white" stroke-width="2" stroke-linejoin="round"/>
<path fill-rule="evenodd" clip-rule="evenodd" d="M10 15.8501C10.2984 15.8501 10.5845 15.7316 10.7955 15.5206C11.0065 15.3096 11.125 15.0235 11.125 14.7251C11.125 14.4267 11.0065 14.1406 10.7955 13.9296C10.5845 13.7186 10.2984 13.6001 10 13.6001C9.70163 13.6001 9.41548 13.7186 9.2045 13.9296C8.99353 14.1406 8.875 14.4267 8.875 14.7251C8.875 15.0235 8.99353 15.3096 9.2045 15.5206C9.41548 15.7316 9.70163 15.8501 10 15.8501Z" fill="white"/>
<path d="M10 4.6001V11.8001" stroke="white" stroke-width="2" stroke-linecap="round" stroke-linejoin="round"/>
</svg>
