<svg width="20" height="20" viewBox="0 0 20 20" fill="none" xmlns="http://www.w3.org/2000/svg">
<path d="M1.58547 13.3442C1.13318 12.2522 0.900391 11.0819 0.900391 9.90002C0.900391 7.51308 1.8486 5.22389 3.53643 3.53606C5.22426 1.84824 7.51344 0.900024 9.90039 0.900024C12.2873 0.900024 14.5765 1.84824 16.2644 3.53606C17.9522 5.22389 18.9004 7.51308 18.9004 9.90002C18.9004 11.0819 18.6676 12.2522 18.2153 13.3442C17.763 14.4361 17.1001 15.4283 16.2644 16.264C15.4286 17.0997 14.4365 17.7626 13.3445 18.2149C12.2526 18.6672 11.0823 18.9 9.90039 18.9C8.71849 18.9 7.54817 18.6672 6.45624 18.2149C5.36431 17.7626 4.37216 17.0997 3.53643 16.264C2.7007 15.4283 2.03777 14.4361 1.58547 13.3442Z" fill="#113138" stroke="white" stroke-width="1.8" stroke-linecap="round" stroke-linejoin="round"/>
<path d="M9.90039 4.90002V9.90002L12.9004 12.9" stroke="white" stroke-width="1.8" stroke-linecap="round" stroke-linejoin="round"/>
</svg>
