<svg width="24" height="24" viewBox="0 0 24 24" fill="none" xmlns="http://www.w3.org/2000/svg">
<path d="M13.1992 9.6001H10.7992V13.2001H7.19922V15.6001H10.7992V19.2001H13.1992V15.6001H16.7992V13.2001H13.1992V9.6001Z" fill="#113138"/>
<path d="M2.4 24H21.6C22.92 24 24 22.92 24 21.6V7.2C24 5.88 22.92 4.8 21.6 4.8H18V2.4C18 1.08 16.92 0 15.6 0H8.4C7.08 0 6 1.08 6 2.4V4.8H2.4C1.08 4.8 0 5.88 0 7.2V21.6C0 22.92 1.08 24 2.4 24ZM8.4 2.4H15.6V4.8H8.4V2.4ZM2.4 7.2H21.6V21.6H2.4V7.2Z" fill="#113138"/>
</svg>
