<svg width="26" height="22" viewBox="0 0 26 22" fill="none" xmlns="http://www.w3.org/2000/svg">
<path d="M17.5637 3.0591e-09C18.1916 -2.51631e-05 18.8097 0.155225 19.363 0.451924C19.9163 0.748623 20.3877 1.17756 20.7351 1.70053L20.8683 1.91881L23.3988 6.34528H24.8735C24.9905 6.34525 25.1039 6.38566 25.1946 6.45966C25.2852 6.53367 25.3475 6.63672 25.371 6.75137L25.3811 6.8529V7.4557C25.3812 7.65852 25.3206 7.85674 25.2071 8.0248C25.0935 8.19286 24.9323 8.32306 24.744 8.39861L24.5816 8.44937C25.0571 9.43694 25.2688 10.5309 25.1958 11.6245L25.1616 11.9888L24.2415 19.3506C24.1691 19.9303 23.8989 20.4674 23.4765 20.871C23.0541 21.2747 22.5054 21.5203 21.9229 21.5663L21.7224 21.5739H20.3049C19.6645 21.5741 19.0478 21.3323 18.5783 20.8969C18.1087 20.4615 17.8211 19.8647 17.7731 19.2262L17.7668 19.0358H7.61433C7.61453 19.6762 7.37269 20.2929 6.93729 20.7624C6.50189 21.232 5.90511 21.5196 5.26658 21.5676L5.07622 21.5739H3.65869C3.07428 21.5743 2.50766 21.373 2.0545 21.004C1.60133 20.635 1.28939 20.1209 1.17134 19.5485L1.13961 19.3506L0.219547 11.99C0.0835906 10.9013 0.232254 9.79596 0.651025 8.78186L0.799505 8.4481L0.769047 8.44176C0.572119 8.39263 0.394437 8.2856 0.258936 8.13449C0.123435 7.98338 0.0363366 7.79513 0.00888336 7.59403L1.05817e-08 7.4557V6.8529C-2.38735e-05 6.73588 0.0403848 6.62244 0.114387 6.53179C0.188389 6.44113 0.29144 6.37883 0.406098 6.35543L0.507622 6.34528H1.98353L4.51276 1.91881C4.82431 1.37353 5.26591 0.91379 5.7982 0.580549C6.3305 0.247309 6.93697 0.0509205 7.56357 0.00888335L7.81738 3.0591e-09H17.5637ZM22.5384 10.1981C21.8825 10.9176 20.9721 11.3532 20.0003 11.4126L19.7389 11.4215H5.64222C5.11613 11.4249 4.59519 11.3178 4.11315 11.107C3.6311 10.8963 3.1987 10.5866 2.84395 10.1981C2.73919 10.5815 2.69508 10.9788 2.71324 11.3758L2.73862 11.674L3.65869 19.0358H5.07622V17.7668C5.07626 17.4559 5.19038 17.1559 5.39693 16.9236C5.60348 16.6914 5.8881 16.543 6.1968 16.5066L6.34528 16.4977H19.0358C19.3467 16.4978 19.6467 16.6119 19.879 16.8184C20.1112 17.025 20.2596 17.3096 20.296 17.6183L20.3049 17.7668V19.0358H21.7224L22.6425 11.674C22.7059 11.1766 22.6691 10.6753 22.5384 10.1981ZM4.74246 12.5611L8.22348 14.4418C8.69683 14.6982 8.50013 15.4178 7.96205 15.3962L5.02546 15.2782C4.69798 15.265 4.38827 15.1258 4.16118 14.8894C3.93409 14.6531 3.80723 14.3381 3.80717 14.0104V13.122C3.8071 13.0121 3.83561 12.904 3.88988 12.8084C3.94415 12.7128 4.02233 12.633 4.11675 12.5767C4.21118 12.5204 4.31861 12.4896 4.42852 12.4873C4.53843 12.485 4.64705 12.5113 4.74373 12.5636L4.74246 12.5611ZM21.5727 13.1195V14.0091C21.5729 14.3371 21.4462 14.6524 21.2191 14.889C20.992 15.1256 20.6821 15.265 20.3544 15.2782L17.4178 15.3949C16.8797 15.4165 16.6817 14.6969 17.1564 14.4406L20.6361 12.5624C20.7328 12.51 20.8414 12.4837 20.9513 12.486C21.0612 12.4883 21.1687 12.5191 21.2631 12.5754C21.3575 12.6317 21.4357 12.7116 21.49 12.8072C21.5442 12.9028 21.5727 13.0096 21.5727 13.1195ZM17.5637 2.53811H7.81738C7.59369 2.53818 7.37399 2.59738 7.18055 2.7097C6.98711 2.82202 6.82679 2.98348 6.71584 3.17771L4.54068 6.98488C4.43045 7.17785 4.37283 7.39639 4.37358 7.61862C4.37433 7.84085 4.43343 8.05899 4.54496 8.25122C4.65649 8.44344 4.81654 8.603 5.0091 8.71394C5.20166 8.82489 5.41998 8.88332 5.64222 8.88339H19.7389C19.9611 8.88332 20.1794 8.82489 20.372 8.71394C20.5646 8.603 20.7246 8.44344 20.8361 8.25122C20.9477 8.05899 21.0068 7.84085 21.0075 7.61862C21.0083 7.39639 20.9507 7.17785 20.8404 6.98488L18.6653 3.17771C18.5542 2.98329 18.3937 2.82172 18.2 2.70938C18.0063 2.59705 17.7864 2.53796 17.5625 2.53811H17.5637Z" fill="#113138"/>
</svg>
